<?xml version="1.0" standalone="no"?>
<!DOCTYPE svg PUBLIC "-//W3C//DTD SVG 20010904//EN"
 "http://www.w3.org/TR/2001/REC-SVG-20010904/DTD/svg10.dtd">
<svg version="1.0" xmlns="http://www.w3.org/2000/svg"
 width="128.000000pt" height="128.000000pt" viewBox="0 0 128.000000 128.000000"
 preserveAspectRatio="xMidYMid meet">

<g transform="translate(0.000000,128.000000) scale(0.100000,-0.100000)"
fill="#000000" stroke="none">
<path d="M167 1274 c-4 -4 -7 -27 -7 -51 0 -37 3 -44 18 -41 13 3 17 13 17 47
0 41 -12 61 -28 45z"/>
<path d="M314 1267 c-11 -30 0 -82 19 -85 16 -3 18 3 15 44 -3 47 -22 70 -34
41z"/>
<path d="M470 1266 c-17 -22 -9 -80 13 -84 14 -3 17 4 17 42 0 49 -11 64 -30
42z"/>
<path d="M622 1268 c-22 -22 -11 -88 14 -88 10 0 14 13 14 44 0 48 -10 62 -28
44z"/>
<path d="M776 1273 c-3 -3 -6 -26 -6 -50 0 -32 4 -43 15 -43 11 0 15 12 15 44
0 43 -10 63 -24 49z"/>
<path d="M12 1118 c-16 -16 -17 -903 -1 -945 5 -15 21 -39 34 -53 12 -14 26
-40 30 -57 13 -63 12 -63 403 -63 398 0 411 2 412 69 0 13 16 41 35 62 25 29
35 48 35 73 0 32 2 34 43 40 103 16 205 94 248 191 16 35 24 76 27 138 4 83 3
89 -14 85 -16 -3 -20 -16 -25 -88 -11 -157 -95 -261 -231 -285 -35 -7 -38 -6
-38 17 0 21 7 26 49 37 60 15 122 67 150 124 19 39 21 61 21 210 0 161 -1 167
-24 194 -23 26 -31 28 -110 32 -84 3 -86 4 -86 28 l0 25 88 -4 c71 -3 94 -8
120 -27 45 -32 56 -56 62 -136 4 -53 9 -70 20 -70 11 0 16 14 18 55 5 76 -11
122 -57 163 -48 43 -93 57 -188 57 l-72 0 -3 68 -3 67 -223 3 c-209 2 -223 1
-220 -15 3 -16 21 -18 210 -21 l206 -2 0 -441 c-1 -479 -2 -488 -58 -516 -33
-17 -722 -18 -769 -2 -61 21 -61 22 -61 513 l0 446 207 2 c189 3 208 5 211 21
3 16 -12 17 -215 17 -157 0 -222 -3 -231 -12z m1122 -274 c13 -13 16 -43 16
-172 0 -138 -2 -161 -21 -200 -24 -49 -78 -90 -133 -99 l-36 -6 0 247 0 246
79 0 c59 0 84 -4 95 -16z m-286 -781 c-3 -17 -30 -18 -362 -21 -360 -2 -375
-1 -376 31 0 4 167 7 371 7 347 0 370 -1 367 -17z"/>
<path d="M533 802 c-7 -4 -45 -82 -85 -173 l-73 -165 -59 64 -59 63 56 57 c34
34 57 66 57 79 0 26 -36 54 -59 46 -19 -7 -158 -140 -172 -165 -15 -27 10 -65
92 -142 62 -59 75 -67 100 -62 16 3 29 1 29 -4 0 -5 11 -17 25 -26 43 -28 63
-4 139 175 l69 162 61 -60 61 -61 -58 -58 c-34 -34 -57 -66 -57 -79 0 -26 25
-53 49 -53 10 0 56 40 104 88 66 68 85 93 81 109 -3 11 -41 55 -83 97 -66 66
-82 77 -107 74 -21 -2 -32 2 -39 17 -11 21 -52 31 -72 17z m37 -39 c0 -5 -34
-88 -77 -185 -68 -157 -93 -203 -93 -168 0 9 97 239 141 333 11 25 29 37 29
20z m-299 -107 c-33 -34 -61 -66 -61 -71 0 -5 28 -38 62 -72 34 -34 59 -66 55
-70 -4 -4 -42 28 -85 70 l-77 78 79 77 c51 50 81 72 84 63 2 -7 -23 -41 -57
-75z m519 -71 c0 -16 -138 -150 -146 -142 -4 4 20 36 54 71 34 35 62 68 62 73
0 5 -27 35 -60 68 -33 33 -60 66 -60 74 0 9 34 -18 75 -59 41 -41 75 -79 75
-85z"/>
</g>
</svg>
